<svg xmlns="http://www.w3.org/2000/svg" viewBox="120 60 300 380" fill="none">
  <g fill="#E7D9CF">
    <!-- Tomás & Astrid Exact Original Logo Vector -->
    <path d="M 135 65 H 265 C 285 65 298 78 298 95 L 155 435 H 125 L 135 65 Z" />
    <path d="M 185 160 L 160 435 H 148 L 173 160 H 185 Z" />
    <path d="M 292 90 C 300 90 308 96 313 108 L 415 375 C 418 385 418 398 410 410 C 400 425 382 435 350 435 H 275 V 423 H 350 C 375 423 392 415 400 403 C 406 394 406 383 403 372 L 302 103 C 298 94 292 90 286 90 Z" />
    <path d="M 255 245 L 345 425 H 275 V 423 H 350 L 265 245 Z" />
  </g>
</svg>
